<?xml version="1.0" standalone="no"?>
<!DOCTYPE svg PUBLIC "-//W3C//DTD SVG 20010904//EN"
 "http://www.w3.org/TR/2001/REC-SVG-20010904/DTD/svg10.dtd">
<svg version="1.0" xmlns="http://www.w3.org/2000/svg"
 width="1000.000000pt" height="992.000000pt" viewBox="0 0 1000.000000 992.000000"
 preserveAspectRatio="xMidYMid meet">

<g transform="translate(0.000000,992.000000) scale(0.100000,-0.100000)"
fill="#000000" stroke="none">
<path d="M3215 9716 c-967 -558 -1612 -1255 -1995 -2161 -191 -450 -334 -1029
-380 -1540 -14 -154 -14 -575 0 -730 18 -209 80 -589 98 -607 4 -3 38 0 75 9
49 11 67 19 63 29 -27 70 -80 433 -96 649 -58 810 165 1805 564 2522 198 355
388 607 680 899 310 309 674 582 1086 813 52 30 105 60 118 68 l23 14 -31 57
c-18 31 -35 60 -39 63 -3 4 -78 -35 -166 -85z"/>
<path d="M5540 9660 c-543 -46 -981 -144 -1420 -317 -791 -312 -1465 -845
-1948 -1540 l-23 -32 108 -72 107 -72 15 24 c9 13 52 72 97 131 650 867 1619
1427 2739 1582 634 88 1253 60 1795 -81 664 -172 1321 -548 1911 -1093 l96
-89 92 93 93 93 -109 98 c-409 371 -790 636 -1218 847 -450 222 -888 351
-1405 414 -157 19 -759 28 -930 14z"/>
<path d="M7746 8258 c-32 -56 -34 -64 -19 -73 9 -5 88 -58 177 -116 468 -310
895 -747 1200 -1229 344 -542 609 -1248 695 -1845 63 -436 52 -911 -29 -1340
-69 -363 -208 -786 -384 -1175 -31 -68 -55 -127 -54 -132 2 -4 31 -21 65 -37
l62 -29 84 191 c232 526 364 993 424 1505 21 186 24 649 5 832 -42 390 -134
772 -277 1155 -323 864 -796 1529 -1453 2042 -96 76 -327 235 -424 292 l-36
22 -36 -63z"/>
<path d="M5305 8279 c-520 -48 -1039 -225 -1454 -496 -190 -124 -307 -219
-477 -388 -171 -169 -282 -302 -387 -462 -95 -145 -219 -373 -203 -373 2 0 23
26 47 58 24 31 75 93 114 137 39 44 101 124 139 178 410 592 1038 1012 1774
1188 265 63 573 95 840 86 l162 -5 0 38 c0 31 -4 39 -22 44 -33 8 -426 5 -533
-5z"/>
<path d="M5350 7829 c-223 -15 -487 -69 -680 -139 -63 -22 -75 -29 -45 -25 22
3 103 10 180 16 77 6 190 19 250 30 195 33 325 42 563 36 295 -7 492 -39 754
-123 636 -204 1173 -610 1555 -1176 42 -62 80 -115 85 -116 4 -2 22 5 39 15
l30 20 -69 104 c-228 344 -551 669 -883 885 -427 278 -903 438 -1409 474 -161
11 -190 11 -370 -1z"/>
<path d="M2775 5789 c-208 -32 -391 -160 -475 -333 -60 -124 -70 -193 -70
-495 0 -307 10 -376 71 -500 122 -247 419 -383 712 -327 175 34 322 130 411
268 42 67 98 196 87 203 -5 3 -72 31 -149 63 l-140 59 -31 -72 c-40 -90 -80
-139 -140 -170 -135 -68 -297 -49 -406 47 -45 39 -70 87 -84 163 -14 76 -14
453 0 531 14 76 48 135 105 178 69 53 129 69 238 64 149 -6 223 -59 287 -203
l31 -72 142 60 c77 32 144 62 148 66 4 3 -14 51 -41 107 -82 171 -213 290
-374 338 -94 28 -232 39 -322 25z"/>
<path d="M1457 5784 c-4 -4 -7 -378 -7 -831 l0 -823 165 0 165 0 -2 828 -3
827 -156 3 c-85 1 -158 -1 -162 -4z"/>
<path d="M3848 5784 c-5 -4 -8 -378 -8 -831 l0 -823 165 0 165 0 0 665 0 665
208 0 c222 0 272 -8 331 -49 47 -33 82 -102 88 -170 10 -103 -31 -175 -122
-217 -43 -21 -66 -24 -162 -24 l-113 0 0 -160 0 -159 118 -3 117 -3 140 -270
140 -270 183 -3 184 -2 -134 257 c-73 142 -151 292 -172 334 l-40 76 48 54
c53 59 95 136 120 218 20 70 21 218 1 295 -51 193 -206 346 -410 402 -50 14
-127 18 -450 21 -214 3 -393 1 -397 -3z"/>
<path d="M5702 4966 c-166 -454 -302 -828 -302 -831 0 -3 77 -4 171 -3 l171 3
179 490 c283 775 291 797 299 788 8 -8 220 -585 220 -597 0 -3 -43 -6 -95 -6
l-95 0 0 -160 0 -159 157 -3 157 -3 64 -177 65 -178 173 0 173 0 -20 53 c-11
28 -147 401 -303 827 l-284 775 -215 3 -214 2 -301 -824z"/>
<path d="M7220 4961 l0 -831 160 0 160 0 0 665 0 665 215 0 c192 0 220 -2 269
-21 96 -35 146 -113 146 -226 0 -92 -36 -147 -125 -189 -43 -21 -65 -24 -162
-24 l-113 0 0 -160 0 -160 118 0 118 0 141 -272 142 -273 180 -3 c100 -1 181
0 181 3 0 3 -77 154 -171 336 l-171 329 52 56 c94 103 134 212 134 359 0 165
-51 292 -161 402 -66 66 -182 130 -278 153 -32 8 -191 14 -442 17 l-393 5 0
-831z"/>
<path d="M9060 5073 c-52 -8 -96 -16 -98 -18 -2 -2 1 -41 7 -87 6 -46 16 -169
22 -274 46 -861 -215 -1756 -725 -2482 -260 -370 -631 -748 -1031 -1052 -128
-98 -380 -264 -512 -339 -232 -131 -560 -271 -808 -345 -561 -166 -1201 -213
-1865 -137 -85 10 -157 16 -159 15 -6 -5 -35 -243 -30 -248 7 -8 160 -26 344
-41 208 -17 693 -20 870 -5 871 74 1617 363 2325 901 819 623 1368 1374 1653
2266 80 247 135 504 174 798 23 177 24 784 2 955 l-14 105 -30 2 c-16 0 -73
-6 -125 -14z"/>
<path d="M153 4818 c-96 -19 -103 -21 -98 -41 3 -12 20 -96 40 -187 283 -1337
950 -2315 2055 -3012 832 -524 1679 -770 2570 -745 242 7 578 41 598 62 5 5
-35 235 -42 242 -2 2 -50 -3 -107 -11 -298 -44 -781 -47 -1074 -7 -660 90
-1262 321 -1870 718 -659 431 -1133 949 -1460 1598 -189 374 -346 842 -436
1293 -25 130 -9 122 -176 90z"/>
<path d="M2096 3675 c-10 -8 -24 -16 -30 -18 -14 -5 117 -200 230 -342 116
-146 401 -428 544 -539 472 -365 988 -590 1546 -677 174 -26 567 -37 736 -20
227 23 508 82 508 106 0 25 -20 26 -142 6 -176 -30 -348 -41 -612 -41 -252 0
-413 14 -617 55 -690 138 -1333 513 -1807 1053 -85 97 -234 295 -283 375 -36
60 -43 64 -73 42z"/>
<path d="M7799 3651 c-24 -68 -125 -276 -187 -384 -218 -381 -549 -746 -911
-1005 -492 -351 -1056 -559 -1661 -613 -201 -18 -603 -6 -797 23 l-151 23 -5
-40 c-3 -22 -5 -41 -4 -42 1 -1 67 -11 147 -22 516 -72 1011 -38 1500 105 782
227 1477 755 1903 1445 97 157 247 463 247 504 0 6 -16 17 -36 23 -34 10 -36
9 -45 -17z"/>
</g>
</svg>
