<?xml version="1.0" standalone="no"?>
<!DOCTYPE svg PUBLIC "-//W3C//DTD SVG 20010904//EN"
 "http://www.w3.org/TR/2001/REC-SVG-20010904/DTD/svg10.dtd">
<svg version="1.0" xmlns="http://www.w3.org/2000/svg"
 width="2130.000000pt" height="893.000000pt" viewBox="0 0 2130.000000 893.000000"
 preserveAspectRatio="xMidYMid meet">

<g transform="translate(0.000000,893.000000) scale(0.100000,-0.100000)"
fill="#000000" stroke="none">
<path d="M20829 8917 c-104 -29 -190 -104 -238 -206 -22 -48 -26 -70 -26 -151
0 -88 3 -101 32 -161 39 -79 102 -140 181 -177 50 -24 70 -27 157 -27 89 0
106 3 157 28 73 36 139 101 175 175 25 51 28 67 28 162 0 95 -3 110 -28 160
-65 126 -180 201 -317 207 -41 1 -95 -3 -121 -10z m248 -68 c71 -34 115 -80
152 -159 37 -79 36 -191 -3 -272 -58 -121 -196 -199 -324 -184 -270 32 -392
344 -212 540 53 57 92 81 161 101 73 20 149 11 226 -26z"/>
<path d="M20790 8565 l0 -205 40 0 40 0 0 75 0 75 34 0 c33 0 37 -4 72 -71 21
-39 43 -73 50 -76 6 -2 27 -3 47 -1 l34 3 -44 79 c-24 43 -42 80 -41 81 2 1
13 8 25 14 53 27 67 118 28 177 -26 40 -73 54 -185 54 l-100 0 0 -205z m210
115 c48 -48 11 -101 -72 -104 l-53 -1 -3 63 -3 62 56 0 c42 0 60 -5 75 -20z"/>
<path d="M1259 8901 c-22 -17 -22 -20 -7 -42 8 -13 67 -78 129 -144 134 -142
251 -272 301 -335 151 -190 228 -479 198 -750 -9 -79 -241 -1022 -941 -3825
-511 -2046 -932 -3728 -935 -3737 -5 -17 64 -18 1349 -18 l1355 0 46 193 c26
105 113 471 194 812 l148 620 1309 0 1309 0 201 -810 200 -810 2080 0 c2143 0
2222 1 2615 41 488 49 882 138 1198 270 359 151 660 382 854 656 l62 87 47
-80 c324 -545 856 -860 1649 -978 236 -35 397 -45 720 -45 469 0 751 25 1005
89 442 111 785 331 989 633 l35 53 57 -178 c31 -98 70 -205 88 -238 47 -90
164 -204 256 -249 142 -69 61 -66 1637 -66 782 0 1428 3 1437 6 9 3 16 17 16
30 0 25 -24 52 -332 388 -195 211 -276 347 -327 546 l-21 84 0 3908 0 3908
-1460 0 -1460 0 -2 -3127 c-3 -2952 -4 -3131 -21 -3188 -83 -283 -289 -463
-625 -547 -128 -32 -372 -32 -492 0 -124 34 -233 94 -311 172 -99 99 -157 221
-178 374 -8 54 -11 1030 -11 3197 l0 3119 -2457 0 c-2435 0 -2877 -5 -3245
-35 -1025 -83 -1720 -330 -2182 -775 -178 -172 -296 -336 -410 -572 l-71 -146
-144 566 c-107 425 -152 586 -178 641 -61 128 -196 240 -353 294 l-65 22
-2616 3 c-2550 2 -2617 2 -2640 -17z m11639 -593 c7 -7 12 -22 12 -35 0 -13
-171 -368 -380 -790 -209 -421 -380 -770 -380 -775 0 -5 6 -8 14 -6 8 2 318
266 688 588 604 525 676 585 707 585 39 0 57 -21 48 -56 -3 -13 -241 -336
-527 -718 -289 -385 -517 -698 -512 -703 4 -4 356 203 790 467 430 261 789
475 796 475 40 0 71 -34 60 -65 -4 -9 -300 -289 -658 -622 -358 -334 -652
-610 -654 -615 -2 -4 6 -8 17 -8 11 0 402 153 867 340 466 187 857 340 869
340 30 0 47 -23 43 -56 -3 -24 -93 -86 -763 -524 -417 -274 -761 -503 -763
-509 -2 -6 5 -11 15 -11 10 0 425 92 923 205 836 188 907 202 928 189 18 -12
22 -23 20 -47 l-3 -32 -848 -371 c-467 -204 -849 -375 -850 -380 -1 -5 12 -10
28 -12 17 -2 422 22 901 53 479 30 893 55 921 55 27 0 54 -5 61 -12 15 -15 16
-65 1 -74 -6 -4 -416 -111 -910 -239 -495 -128 -902 -235 -906 -239 -4 -3 -2
-10 3 -15 5 -5 425 -48 934 -96 668 -62 931 -91 948 -101 12 -8 22 -23 22 -34
0 -18 -24 -50 -38 -50 -80 -4 -1865 -179 -1869 -184 -4 -3 -2 -10 3 -15 5 -5
407 -112 894 -236 487 -125 895 -234 908 -241 29 -19 30 -69 2 -84 -11 -6 -41
-8 -67 -5 -27 3 -446 30 -932 61 -834 52 -925 55 -899 29 3 -3 381 -170 839
-372 459 -201 840 -370 847 -375 6 -6 12 -23 12 -39 0 -63 22 -67 -901 141
-470 106 -858 196 -862 200 -5 4 -15 40 -23 80 -50 239 -199 544 -378 770
-259 328 -600 586 -1101 832 -278 137 -471 217 -1155 478 -645 246 -957 420
-1114 621 -101 129 -136 227 -136 384 0 183 48 303 171 427 65 65 92 84 190
132 123 59 241 95 414 123 87 14 168 18 390 18 244 0 296 -3 406 -22 224 -40
406 -91 731 -206 3 -1 232 277 508 618 683 843 626 775 658 775 16 0 33 -5 40
-12z m-5960 -1122 c161 -98 242 -153 242 -164 0 -23 -39 -234 -44 -239 -2 -3
-84 71 -183 163 -308 289 -343 325 -343 350 0 28 26 45 60 41 14 -1 134 -69
268 -151z m-2083 -2056 c245 -987 448 -1803 451 -1812 5 -17 -42 -18 -895 -18
-614 0 -901 3 -901 10 0 6 200 820 445 1809 245 989 445 1802 445 1806 0 5 2
6 5 4 2 -3 205 -812 450 -1799z m1791 1399 c247 -99 452 -183 455 -187 7 -7
30 -354 24 -360 -1 -1 -49 28 -106 66 -57 38 -268 176 -469 306 -201 131 -380
249 -397 263 -51 38 -41 93 17 93 15 0 229 -81 476 -181z m-165 -659 c365 -83
671 -153 680 -156 10 -3 21 -26 29 -62 16 -73 83 -266 120 -348 18 -40 23 -61
15 -57 -8 2 -360 157 -782 342 -681 300 -769 341 -777 364 -8 21 -6 31 9 47
10 11 23 20 30 20 6 0 310 -68 676 -150z m-1 -650 c443 -28 828 -53 855 -56
50 -5 50 -5 92 -78 206 -353 575 -672 1068 -923 293 -149 530 -244 1145 -458
712 -249 958 -357 1180 -521 175 -129 292 -286 334 -451 71 -273 -13 -515
-236 -683 -211 -159 -521 -252 -888 -267 -276 -10 -419 13 -735 123 -88 31
-167 58 -175 60 -10 3 -189 -210 -570 -681 -517 -638 -556 -685 -585 -685 -36
0 -55 15 -55 45 0 11 171 366 380 788 209 423 380 771 380 773 0 26 -129 -80
-704 -581 -623 -542 -669 -580 -704 -580 -31 0 -38 4 -46 27 -9 25 25 73 513
723 287 383 525 703 528 711 3 8 -1 14 -11 14 -9 0 -364 -211 -791 -470 -426
-259 -782 -470 -790 -470 -32 0 -55 20 -55 49 0 24 89 111 655 637 425 395
651 612 645 618 -7 7 -310 -110 -866 -333 -538 -215 -865 -341 -881 -339 -32
4 -48 27 -39 59 5 18 186 141 766 519 417 272 759 501 760 508 0 6 -5 12 -10
12 -6 0 -412 -90 -903 -200 -490 -111 -904 -201 -919 -202 -52 -2 -79 52 -41
83 9 8 392 178 851 379 460 201 837 371 840 378 6 18 -3 17 -993 -47 -710 -46
-894 -55 -910 -46 -30 18 -31 60 -3 78 13 8 403 113 868 232 1023 262 956 244
939 260 -10 9 -304 40 -944 99 -872 81 -931 88 -947 107 -34 40 -18 68 43 79
24 4 448 45 942 91 494 46 903 87 910 91 9 6 9 10 -1 16 -7 5 -412 111 -900
236 -488 126 -897 235 -909 242 -23 14 -30 48 -15 70 12 18 34 23 82 18 25 -2
407 -27 850 -54z m7533 -2484 c622 -407 687 -452 687 -476 0 -33 -17 -50 -50
-50 -14 0 -315 116 -670 258 l-644 258 -3 84 c-4 144 -13 293 -20 339 -4 27
-2 42 4 40 5 -2 319 -206 696 -453z m-243 -672 c309 -289 436 -414 438 -431 4
-32 -14 -53 -46 -53 -16 0 -188 99 -446 256 -232 141 -423 258 -425 260 -3 2
3 71 12 152 10 81 17 164 17 185 0 20 3 37 8 37 4 0 203 -183 442 -406z m-367
-683 c114 -153 207 -287 207 -298 0 -27 -19 -43 -53 -43 -23 0 -70 35 -232
175 -111 96 -208 181 -215 190 -10 12 -4 37 32 135 23 66 45 120 48 120 3 0
99 -126 213 -279z"/>
</g>
</svg>
